<?xml version="1.0" standalone="no"?>
<!DOCTYPE svg PUBLIC "-//W3C//DTD SVG 20010904//EN"
 "http://www.w3.org/TR/2001/REC-SVG-20010904/DTD/svg10.dtd">
<svg width="30" version="1.0" xmlns="http://www.w3.org/2000/svg" 
fill="white" viewBox="0 0 512 512">
<path d="M0 80c0-8.84 7.164-16 16-16h416c8.8 0 16 7.16 16 16s-7.2 16-16 16H16C7.164 96 0 88.84 0 80zm0 160c0-8.8 7.164-16 16-16h416c8.8 0 16 7.2 16 16s-7.2 16-16 16H16c-8.836 0-16-7.2-16-16zm432 176H16c-8.836 0-16-7.2-16-16s7.164-16 16-16h416c8.8 0 16 7.2 16 16s-7.2 16-16 16z" stroke="white"></path>
</svg>       