<?xml version="1.0" standalone="no"?>
<!DOCTYPE svg PUBLIC "-//W3C//DTD SVG 20010904//EN"
 "http://www.w3.org/TR/2001/REC-SVG-20010904/DTD/svg10.dtd">
<svg version="1.0" xmlns="http://www.w3.org/2000/svg"
 width="200.000000pt" height="200.000000pt" viewBox="0 0 200.000000 200.000000"
 preserveAspectRatio="xMidYMid meet">
<metadata>
Created by potrace 1.16, written by Peter Selinger 2001-2019
</metadata>
<g transform="translate(0.000000,200.000000) scale(0.032258,-0.031104)"
fill="#000000" stroke="none">
<path d="M0 3215 l0 -3215 3100 0 3100 0 0 3215 0 3215 -3100 0 -3100 0 0
-3215z m3316 2875 c105 -18 213 -43 210 -49 -2 -3 6 -7 18 -7 21 -2 144 -46
179 -65 119 -65 118 -65 192 -114 33 -22 97 -77 142 -122 l82 -83 133 0 c136
0 219 -12 353 -52 39 -11 76 -25 83 -31 7 -6 23 -12 35 -13 38 -4 256 -126
277 -154 3 -4 17 -13 32 -21 58 -31 258 -244 297 -318 8 -14 17 -28 21 -31 7
-5 14 -19 85 -160 77 -152 115 -326 115 -521 0 -106 2 -119 20 -132 11 -8 17
-17 12 -22 -4 -5 -2 -5 4 -2 15 9 86 -52 77 -66 -3 -7 -2 -9 2 -4 11 10 56
-33 48 -46 -3 -6 -1 -7 4 -4 24 15 160 -174 223 -309 54 -115 54 -116 78 -204
29 -106 57 -293 54 -370 -2 -84 -15 -197 -32 -278 -22 -109 -90 -302 -120
-344 -11 -15 -20 -30 -20 -34 0 -12 -62 -107 -104 -159 -67 -83 -128 -145
-179 -182 l-49 -36 7 -101 c4 -58 2 -139 -4 -191 -13 -100 -48 -255 -62 -270
-5 -5 -9 -17 -9 -28 0 -10 -4 -15 -10 -12 -5 3 -7 0 -4 -8 17 -44 -218 -416
-253 -403 -8 4 -11 1 -8 -5 9 -13 -25 -50 -38 -42 -6 3 -7 1 -3 -5 4 -6 -3
-19 -15 -29 -12 -10 -37 -32 -56 -50 -90 -85 -339 -232 -366 -217 -7 4 -9 3
-4 -1 19 -22 -186 -79 -341 -96 -59 -6 -143 -9 -187 -6 l-80 6 -59 -59 c-32
-33 -63 -57 -69 -53 -6 4 -7 1 -3 -6 9 -14 10 -13 -95 -92 -104 -79 -297 -176
-385 -192 -10 -2 -26 -7 -34 -10 -24 -9 -124 -35 -140 -36 -8 0 -62 -5 -120
-11 -121 -11 -294 0 -420 29 -120 27 -358 129 -343 146 5 4 3 5 -3 2 -20 -11
-165 93 -258 185 l-91 91 -80 -3 c-44 -2 -100 -3 -125 -2 -75 3 -210 25 -210
34 0 5 -4 7 -9 4 -13 -9 -151 33 -200 60 -24 13 -49 24 -55 24 -18 0 -190 104
-243 147 -84 68 -106 87 -154 138 -65 69 -139 162 -139 173 0 6 -3 12 -8 14
-25 11 -134 224 -159 311 -8 29 -24 84 -35 122 -17 58 -21 105 -23 265 l-2
195 -83 80 c-218 211 -359 517 -379 819 -11 172 14 436 41 436 5 0 6 5 3 10
-9 15 34 152 45 145 5 -3 7 1 4 9 -7 17 71 186 86 186 5 0 10 6 10 13 0 37
169 244 241 294 21 16 42 37 45 47 4 11 8 83 9 160 2 135 8 176 50 336 25 100
147 345 177 358 5 2 8 9 8 15 0 14 37 61 97 127 23 25 52 57 66 73 13 15 30
27 36 27 6 0 14 7 17 15 11 27 140 116 160 109 14 -4 15 -3 6 4 -16 11 8 27
138 89 122 59 209 88 315 107 17 3 41 8 55 12 14 3 90 7 169 9 l145 3 70 69
c91 89 142 128 246 190 152 91 295 139 520 176 52 9 269 7 326 -3z"/>
<path d="M2939 5995 c-135 -23 -289 -76 -391 -136 -32 -19 -48 -24 -52 -16 -3
9 -5 9 -5 0 -1 -6 -30 -34 -65 -62 -76 -59 -156 -132 -156 -141 0 -4 37 -19
82 -34 97 -33 220 -95 212 -107 -3 -5 1 -7 8 -4 20 8 80 -33 72 -48 -4 -6 -4
-9 1 -5 17 16 98 -60 390 -361 l109 -114 211 216 c207 213 250 252 350 313 74
46 121 67 215 99 47 16 89 32 93 35 10 9 -84 100 -150 147 -26 18 -50 37 -53
42 -3 4 -35 23 -72 41 -37 18 -64 38 -61 43 3 6 1 7 -5 3 -6 -4 -28 1 -49 10
-198 84 -468 116 -684 79z"/>
<path d="M1980 5563 c-353 -13 -707 -195 -917 -473 -36 -47 -68 -84 -73 -83
-4 1 -7 -3 -7 -10 1 -7 -22 -59 -50 -117 -61 -126 -87 -205 -108 -325 -17
-101 -24 -249 -12 -261 4 -4 40 7 80 25 39 18 83 36 97 38 14 3 30 9 35 13 13
11 84 29 154 41 31 5 201 9 378 9 272 0 324 2 336 15 13 12 15 67 17 347 1
183 5 351 9 373 29 139 96 315 121 315 5 0 7 7 4 15 -3 8 5 25 18 38 23 23 23
24 3 33 -11 5 -49 8 -85 7z"/>
<path d="M4226 5552 c-4 -7 16 -58 44 -114 28 -57 52 -117 53 -135 1 -17 5
-29 9 -27 3 2 14 -28 24 -68 15 -60 19 -137 23 -428 l6 -355 185 -2 c561 -7
581 -8 664 -32 44 -13 114 -39 155 -57 58 -27 77 -32 83 -22 14 20 0 193 -22
288 -30 124 -47 174 -98 280 -26 52 -45 99 -44 103 1 5 -2 6 -7 3 -5 -3 -11 0
-14 7 -2 6 -25 40 -51 73 -25 34 -46 67 -46 73 0 6 -4 11 -8 11 -5 0 -44 34
-88 75 -43 41 -82 75 -86 75 -4 0 -13 6 -21 14 -23 23 -179 120 -217 135 -198
77 -280 97 -435 107 -71 5 -104 3 -109 -4z"/>
<path d="M2191 5540 c-18 -11 -79 -119 -108 -190 -64 -155 -65 -164 -72 -555
-4 -236 -3 -363 4 -368 6 -4 143 -6 306 -5 267 3 299 5 316 21 11 9 23 14 27
10 4 -5 6 -3 4 4 -2 6 85 102 192 214 107 111 198 207 202 213 7 12 -36 60
-267 296 -147 151 -211 205 -308 260 -63 35 -202 90 -229 90 -10 0 -18 4 -18
8 0 9 -36 11 -49 2z"/>
<path d="M3985 5515 c-168 -54 -278 -121 -405 -247 -202 -198 -360 -370 -353
-383 5 -7 79 -86 166 -175 92 -95 154 -167 150 -173 -3 -7 -2 -9 2 -5 5 5 36
-18 69 -50 l61 -59 300 1 300 1 0 350 c-1 369 -1 374 -52 524 -20 61 -73 169
-101 209 -28 38 -41 39 -137 7z"/>
<path d="M3038 4713 c-52 -54 -128 -133 -168 -176 -41 -43 -79 -76 -85 -73 -8
3 -10 -5 -7 -20 l4 -24 355 0 c304 1 355 3 360 16 3 8 -2 23 -11 33 -10 11
-14 21 -9 23 4 3 3 3 -4 2 -6 -2 -81 69 -165 156 -84 88 -158 160 -164 160 -6
0 -54 -44 -106 -97z"/>
<path d="M2672 4327 c-7 -7 -49 -49 -94 -94 -45 -45 -85 -80 -90 -77 -4 3 -8
0 -8 -7 0 -6 -16 -29 -35 -50 -19 -22 -35 -33 -35 -27 0 7 -8 -2 -17 -19 -10
-18 -83 -99 -163 -181 -80 -81 -162 -167 -183 -189 l-38 -40 0 -449 c1 -247 1
-453 1 -459 0 -17 39 -59 526 -557 l125 -128 484 0 484 0 72 75 c40 41 76 72
81 69 5 -3 7 -1 6 5 -3 9 104 124 381 411 l111 114 0 460 0 459 -89 91 c-48
50 -113 116 -142 148 -30 31 -137 142 -239 247 l-185 191 -460 0 c-260 0 -465
4 -470 9 -6 5 -15 4 -23 -2z m526 -981 c56 -20 98 -61 114 -110 12 -38 14 -59
10 -112 -3 -28 -82 -113 -112 -120 -101 -23 -175 2 -221 74 -63 99 -17 225 96
266 51 19 64 19 113 2z"/>
<path d="M3791 4320 c-10 -6 -10 -41 -1 -35 4 3 69 -59 145 -138 335 -347 335
-347 340 -323 3 11 4 127 3 256 l-3 235 -238 5 c-132 3 -242 3 -246 0z"/>
<path d="M4389 4316 c-5 -6 -9 -138 -9 -319 l0 -309 93 -96 c50 -53 102 -107
115 -120 12 -13 19 -28 16 -34 -4 -6 -3 -8 3 -5 12 8 83 -60 79 -76 -2 -7 -1
-8 2 -4 2 5 13 1 23 -9 10 -9 16 -21 12 -27 -3 -5 -1 -7 4 -4 6 4 19 -5 29
-18 10 -14 26 -25 35 -25 9 0 101 88 204 195 299 310 304 316 360 423 15 29
31 55 36 58 5 3 9 14 9 25 0 10 5 19 11 19 5 0 8 3 5 8 -2 4 6 45 20 90 19 68
21 86 11 102 -6 11 -17 20 -24 20 -6 0 -13 5 -15 12 -2 6 -24 17 -49 24 -61
17 -140 45 -164 58 -26 14 -792 25 -806 12z"/>
<path d="M1172 4309 c-108 -18 -300 -95 -331 -133 -16 -19 -5 -67 42 -185 54
-135 107 -211 259 -369 49 -51 86 -97 83 -102 -3 -5 0 -8 7 -6 7 2 65 -52 128
-119 63 -67 122 -123 131 -124 15 -1 369 356 406 409 12 16 14 75 11 328 l-3
307 -340 1 c-187 1 -364 -2 -393 -7z"/>
<path d="M2010 4318 c-5 -69 0 -501 5 -506 9 -8 484 478 485 496 0 9 -56 12
-245 12 -135 0 -245 -1 -245 -2z"/>
<path d="M5552 4118 c-7 -7 -12 -21 -12 -33 0 -12 -5 -26 -12 -33 -7 -7 -9
-12 -6 -12 10 0 -25 -96 -57 -160 -30 -58 -92 -155 -133 -205 -65 -79 -275
-294 -283 -289 -5 3 -8 1 -7 -4 2 -6 -36 -51 -85 -102 -60 -62 -85 -95 -80
-104 5 -8 103 -112 219 -232 283 -294 295 -306 290 -326 -2 -11 1 -15 10 -11
8 3 14 0 14 -5 0 -6 6 -17 13 -24 33 -36 108 -194 127 -265 6 -24 15 -43 21
-43 10 0 68 50 116 100 50 52 132 168 168 238 22 43 41 70 47 66 7 -4 8 -2 4
4 -4 7 6 51 23 99 16 49 35 116 42 151 7 34 16 62 20 62 3 0 6 82 5 183 -2
148 -6 200 -24 278 -23 98 -65 218 -101 284 -11 21 -18 42 -15 47 3 4 1 8 -4
8 -6 0 -21 19 -35 43 -34 57 -113 155 -170 209 -25 25 -43 49 -39 53 4 5 2 5
-5 1 -6 -3 -18 3 -26 14 -10 15 -16 17 -25 8z"/>
<path d="M668 4046 c-30 -30 -77 -83 -103 -118 -26 -35 -52 -62 -57 -60 -5 1
-6 -3 -2 -9 3 -6 2 -14 -3 -18 -12 -7 -73 -121 -73 -134 0 -6 -6 -18 -13 -26
-19 -22 -65 -180 -83 -281 -29 -170 -14 -424 36 -579 11 -35 17 -68 13 -74 -3
-6 -1 -7 5 -3 7 4 12 2 12 -4 0 -7 18 -50 41 -96 22 -46 38 -88 34 -93 -3 -6
0 -9 7 -6 8 3 26 -17 45 -49 37 -61 169 -206 187 -206 12 0 46 60 46 81 0 12
26 74 41 99 5 8 18 33 30 54 55 102 96 148 472 533 136 139 133 117 32 219
-292 296 -475 504 -475 540 0 6 -6 17 -14 23 -13 11 -73 151 -96 224 -6 20
-15 37 -19 37 -4 0 -33 -24 -63 -54z"/>
<path d="M1728 3355 c-87 -90 -158 -167 -158 -172 0 -4 38 -46 84 -93 46 -46
82 -88 79 -93 -2 -4 0 -6 5 -5 5 2 41 -30 79 -71 39 -40 75 -71 80 -68 6 4 10
98 10 234 0 125 1 255 3 288 1 33 1 65 -1 70 -1 6 -2 23 -3 39 0 16 -5 30 -11
32 -5 1 -81 -71 -167 -161z"/>
<path d="M4380 3493 c-3 -256 2 -629 9 -636 12 -12 321 303 321 327 0 6 -20
33 -45 59 -25 27 -43 53 -40 58 4 5 -2 6 -11 2 -14 -5 -16 -3 -11 11 4 9 3 15
-2 12 -4 -3 -52 40 -106 94 -54 55 -102 100 -106 100 -5 0 -9 -12 -9 -27z"/>
<path d="M1402 3018 c-45 -46 -105 -109 -133 -140 -29 -32 -56 -55 -61 -52 -5
3 -7 1 -6 -4 2 -6 -40 -54 -93 -109 -94 -97 -179 -202 -179 -223 0 -5 -3 -10
-8 -10 -20 0 -110 -236 -99 -263 9 -23 97 -71 195 -107 142 -52 221 -60 557
-60 167 0 311 3 319 6 15 6 16 39 16 307 -2 302 -4 323 -39 358 -9 9 -94 98
-190 197 -96 100 -180 182 -186 182 -7 0 -48 -37 -93 -82z"/>
<path d="M4765 3080 c-10 -11 -22 -17 -28 -13 -5 3 -7 2 -4 -4 10 -15 -168
-197 -183 -188 -9 6 -11 4 -5 -4 4 -8 -24 -44 -79 -101 l-86 -88 2 -313 3
-314 350 0 c378 0 439 7 581 60 35 13 64 22 64 20 0 -3 8 3 18 13 11 9 33 25
50 34 l31 17 -15 53 c-8 29 -19 61 -25 71 -5 10 -7 22 -4 27 4 6 1 10 -6 10
-6 0 -9 8 -6 20 3 11 0 18 -6 17 -5 -1 -13 7 -16 18 -6 20 -44 83 -82 137 -10
15 -19 30 -19 33 0 4 -14 18 -31 32 -17 15 -28 32 -25 40 3 8 1 11 -4 8 -9 -5
-125 110 -345 343 -49 50 -93 92 -100 92 -7 0 -20 -9 -30 -20z"/>
<path d="M2010 2563 c-1 -14 -1 -472 0 -498 0 -13 33 -15 239 -15 132 0 242 4
245 8 3 5 -44 60 -104 123 -60 63 -109 120 -110 127 0 6 -5 12 -11 12 -6 0
-66 57 -135 128 -68 70 -124 121 -124 115z"/>
<path d="M4188 2485 c-42 -44 -133 -138 -202 -210 -69 -71 -126 -133 -126
-138 0 -4 -4 -5 -10 -2 -5 3 -10 0 -10 -7 0 -7 -11 -22 -25 -32 -55 -42 -40
-45 215 -48 192 -2 241 0 245 10 8 21 6 486 -3 497 -4 6 -39 -23 -84 -70z"/>
<path d="M793 2083 c-9 -22 -9 -143 -1 -228 12 -131 52 -264 120 -400 28 -55
53 -102 57 -105 3 -3 24 -31 45 -63 22 -32 61 -81 88 -108 27 -28 46 -55 42
-61 -4 -7 -3 -8 5 -4 7 5 21 -2 35 -17 84 -90 310 -219 471 -269 100 -30 336
-58 388 -44 l25 6 -47 94 c-27 52 -61 138 -77 193 l-29 98 -3 380 c-2 280 -6
382 -15 387 -7 4 -149 8 -317 8 -225 0 -329 4 -395 16 -127 21 -145 25 -141
33 2 3 -8 6 -22 7 -15 1 -63 18 -107 40 -118 57 -115 56 -122 37z"/>
<path d="M5410 2053 c-63 -32 -133 -56 -235 -83 -35 -10 -160 -15 -420 -19
l-370 -6 -6 -380 c-5 -343 -8 -387 -26 -455 -27 -94 -55 -168 -98 -248 -18
-34 -29 -65 -24 -68 5 -3 51 -5 102 -5 101 0 223 20 313 51 32 11 67 18 78 14
14 -3 17 -2 8 3 -8 7 6 17 45 33 32 13 75 34 97 48 28 17 41 21 46 12 5 -8 10
-9 14 -2 3 6 0 12 -6 15 -7 2 1 11 19 20 89 46 264 217 340 332 138 207 198
385 210 625 7 155 5 159 -87 113z"/>
<path d="M2009 1933 c-2 -10 -1 -187 2 -393 l5 -375 33 -92 c33 -97 81 -200
112 -245 l19 -26 61 14 c81 19 212 76 285 124 32 21 63 37 68 36 6 -2 8 -1 4
1 -5 3 36 48 90 101 53 53 138 140 187 192 50 52 101 103 114 114 22 18 24 19
18 3 -4 -12 -3 -16 4 -12 6 4 8 13 5 21 -3 8 8 28 25 45 26 26 28 33 17 47
-17 22 -157 168 -271 283 -52 53 -85 94 -81 101 4 6 3 8 -3 5 -6 -4 -29 11
-51 33 l-40 40 -300 0 c-277 0 -300 -1 -303 -17z"/>
<path d="M2776 1942 c-2 -4 36 -50 86 -102 50 -52 119 -125 154 -162 35 -37
64 -72 64 -77 0 -5 9 -12 19 -16 11 -3 22 -12 25 -20 11 -31 -3 -43 274 245
66 68 118 128 116 132 -7 10 -731 10 -738 0z"/>
<path d="M3565 1838 c-60 -62 -113 -112 -118 -110 -5 1 -6 -1 -3 -6 7 -12 -68
-84 -78 -75 -4 5 -6 3 -4 -4 1 -6 -30 -46 -70 -87 -60 -62 -71 -79 -63 -93 5
-10 57 -67 116 -126 64 -65 103 -111 99 -119 -4 -6 -3 -8 3 -5 13 8 56 -37 46
-48 -5 -4 -3 -6 3 -2 5 3 51 -33 102 -81 50 -48 112 -103 138 -122 102 -75
322 -164 366 -147 22 8 79 107 111 192 60 162 62 178 62 575 l0 365 -300 3
-300 2 -110 -112z"/>
<path d="M3115 1370 c-10 -11 -22 -17 -27 -14 -4 3 -7 1 -6 -4 4 -16 -263
-293 -275 -285 -5 3 -7 1 -4 -5 8 -12 -169 -182 -188 -182 -8 0 -15 -3 -17 -7
-10 -24 -134 -87 -150 -77 -6 4 -8 2 -5 -3 7 -11 -4 -16 -111 -54 -34 -12 -64
-25 -67 -29 -5 -8 27 -44 95 -104 140 -124 337 -218 550 -263 93 -19 359 -22
445 -4 209 44 342 100 497 209 44 31 86 56 92 54 6 -2 8 0 3 4 -9 10 61 83 77
80 6 -2 8 -1 4 1 -4 2 -5 10 -2 17 5 13 -5 18 -106 51 -30 10 -61 23 -69 29
-7 5 -19 11 -26 12 -22 3 -137 73 -200 122 -80 62 -108 94 -92 105 8 6 7 7 -5
4 -12 -4 -67 46 -195 178 -98 102 -183 185 -189 185 -6 0 -19 -9 -29 -20z"/>
</g>
</svg>
